<?xml version="1.0" encoding="utf-8"?>
<!-- Generator: Adobe Illustrator 18.1.0, SVG Export Plug-In . SVG Version: 6.00 Build 0)  -->
<svg version="1.1" id="Layer_1" xmlns="http://www.w3.org/2000/svg" xmlns:xlink="http://www.w3.org/1999/xlink" x="0px" y="0px"
	 viewBox="0 0 21.4 17.4" enable-background="new 0 0 21.4 17.4" xml:space="preserve">
<g>
	<path fill="#2B8BCB" d="M6.2,0l2.8,2.3C6.6,3.9,4.4,7,4.2,9.5c0.1,0,0.6-0.1,1-0.1c2.2,0,3.7,1.6,3.7,3.9c0,2.2-1.8,4.1-4.1,4.1
		c-2.5,0-4.8-2.1-4.8-5.8C0,6.8,2.7,2.5,6.2,0z M18.5,0l2.8,2.3c-2.5,1.6-4.6,4.7-4.9,7.2c0.1,0,0.6-0.1,1-0.1
		c2.2,0,3.8,1.6,3.8,3.9c0,2.2-1.8,4.1-4.2,4.1c-2.5,0-4.8-2.1-4.8-5.8C12.3,6.8,15,2.5,18.5,0z"/>
</g>
</svg>
